<?xml version="1.0" encoding="iso-8859-1"?>
<!-- Generator: Adobe Illustrator 19.0.0, SVG Export Plug-In . SVG Version: 6.00 Build 0)  -->
<svg version="1.0" id="Layer_1" xmlns="http://www.w3.org/2000/svg" xmlns:xlink="http://www.w3.org/1999/xlink" x="0px" y="0px"
	 viewBox="0 0 300 300" style="enable-background:new 0 0 300 300;" xml:space="preserve">
<path id="XMLID_174_" style="fill:#FFFFFF;stroke:#231F20;stroke-miterlimit:10;" d="M239.479,114.223l23.307-23.307
	c-4.437-14.301-12.296-27.77-23.619-39.093c-0.471-0.471-0.951-0.927-1.429-1.386c10.978-21.302,19.341-22.515,22.133-22.18
	c8.142,0.978,10.23,5.342,12.41,25.935c1.28,12.086,2.729,25.784,10.066,37.195c2.857,4.447,8.795,5.744,13.25,2.88
	c4.454-2.864,5.744-8.796,2.88-13.25c-4.876-7.585-6.02-18.393-7.126-28.844c-0.988-9.329-1.921-18.14-5.355-25.761
	c-4.53-10.052-12.551-15.837-23.837-17.193c-14.835-1.782-27.96,7.837-39.742,29.252c-7.063-4.433-14.578-7.859-22.342-10.268
	l-23.307,23.307C130.663,30.732,74.566,39.272,36.689,77.15c-48.919,48.919-48.919,128.232,0,177.151s128.232,48.919,177.151,0
	C251.717,216.423,260.257,160.327,239.479,114.223z"/>
</svg>
